<mxfile host="app.diagrams.net" agent="Mozilla/5.0 (Macintosh; Intel Mac OS X 10_15_7) AppleWebKit/537.36 (KHTML, like Gecko) Chrome/133.0.0.0 Safari/537.36" version="26.0.16">
  <diagram name="페이지-1" id="DKJEJJquOrz6qWJuDARE">
    <mxGraphModel dx="671" dy="582" grid="1" gridSize="10" guides="1" tooltips="1" connect="1" arrows="1" fold="1" page="1" pageScale="1" pageWidth="827" pageHeight="1169" math="0" shadow="0">
      <root>
        <mxCell id="0" />
        <mxCell id="1" parent="0" />
        <mxCell id="7s8bwWjw4Fd3qJMRJWJz-1" value="결재자" style="shape=actor;whiteSpace=wrap;html=1;" vertex="1" parent="1">
          <mxGeometry x="50" y="100" width="60" height="80" as="geometry" />
        </mxCell>
        <mxCell id="7s8bwWjw4Fd3qJMRJWJz-2" value="상신자" style="shape=actor;whiteSpace=wrap;html=1;" vertex="1" parent="1">
          <mxGeometry x="50" y="240" width="60" height="80" as="geometry" />
        </mxCell>
        <mxCell id="7s8bwWjw4Fd3qJMRJWJz-3" value="결재 답변" style="ellipse;whiteSpace=wrap;html=1;" vertex="1" parent="1">
          <mxGeometry x="150" y="110" width="120" height="60" as="geometry" />
        </mxCell>
        <mxCell id="7s8bwWjw4Fd3qJMRJWJz-4" value="알림 생성" style="ellipse;whiteSpace=wrap;html=1;" vertex="1" parent="1">
          <mxGeometry x="330" y="110" width="120" height="60" as="geometry" />
        </mxCell>
        <mxCell id="7s8bwWjw4Fd3qJMRJWJz-5" value="알림 확인" style="ellipse;whiteSpace=wrap;html=1;" vertex="1" parent="1">
          <mxGeometry x="150" y="250" width="120" height="60" as="geometry" />
        </mxCell>
        <mxCell id="7s8bwWjw4Fd3qJMRJWJz-6" value="배지 알림 표시" style="ellipse;whiteSpace=wrap;html=1;" vertex="1" parent="1">
          <mxGeometry x="510" y="110" width="120" height="60" as="geometry" />
        </mxCell>
        <mxCell id="7s8bwWjw4Fd3qJMRJWJz-7" edge="1" parent="1" source="7s8bwWjw4Fd3qJMRJWJz-1" target="7s8bwWjw4Fd3qJMRJWJz-3">
          <mxGeometry relative="1" as="geometry" />
        </mxCell>
        <mxCell id="7s8bwWjw4Fd3qJMRJWJz-8" edge="1" parent="1" source="7s8bwWjw4Fd3qJMRJWJz-3" target="7s8bwWjw4Fd3qJMRJWJz-4">
          <mxGeometry relative="1" as="geometry" />
        </mxCell>
        <mxCell id="7s8bwWjw4Fd3qJMRJWJz-9" edge="1" parent="1" source="7s8bwWjw4Fd3qJMRJWJz-2" target="7s8bwWjw4Fd3qJMRJWJz-5">
          <mxGeometry relative="1" as="geometry" />
        </mxCell>
        <mxCell id="7s8bwWjw4Fd3qJMRJWJz-10" edge="1" parent="1" source="7s8bwWjw4Fd3qJMRJWJz-4" target="7s8bwWjw4Fd3qJMRJWJz-6">
          <mxGeometry relative="1" as="geometry" />
        </mxCell>
        <mxCell id="7s8bwWjw4Fd3qJMRJWJz-11" style="entryX=0.5;entryY=0;entryDx=0;entryDy=0;exitX=0.5;exitY=1;exitDx=0;exitDy=0;" edge="1" parent="1" source="7s8bwWjw4Fd3qJMRJWJz-6" target="7s8bwWjw4Fd3qJMRJWJz-2">
          <mxGeometry relative="1" as="geometry" />
        </mxCell>
      </root>
    </mxGraphModel>
  </diagram>
</mxfile>
